<?xml version="1.0" encoding="utf-8"?>
<!-- Generator: Adobe Illustrator 21.1.0, SVG Export Plug-In . SVG Version: 6.00 Build 0)  -->
<svg version="1.1" id="Calque_1" xmlns="http://www.w3.org/2000/svg" xmlns:xlink="http://www.w3.org/1999/xlink" x="0px" y="0px"
	 viewBox="0 0 546 400" style="enable-background:new 0 0 546 400;" xml:space="preserve">
<g>
	<path class="number-art" d="M519.8,9.4h-494c-4.7,0-8.5,3.8-8.5,8.5v366c0,4.7,3.8,8.5,8.5,8.5h494c4.7,0,8.5-3.8,8.5-8.5v-366
		C528.3,13.2,524.5,9.4,519.8,9.4z M473.3,64.4v145.1c-58.7,0.7-92.4,9.9-122.2,18c-2.8,0.8-5.6,1.5-8.3,2.2l-44.4-44.4
		c-17.8-17.8-46.2-18.5-64.8-2.2l-40.2-40.2c-9.2-9.2-24.1-9.2-33.2,0l-87.9,87.9V64.4H473.3z M272.5,241.4c-0.6,0-1.2,0.1-1.7,0.3
		c-18.2-5.4-38.5-10.5-61.3-13.4l32.4-32.4c12.7-12.7,33.3-12.7,46,0l38.1,38.1C310.2,237.6,293.4,240.5,272.5,241.4z M89.6,234.7
		l81.2-81.2c3.3-3.3,8.7-3.3,12,0l40.1,40.1l-32.8,32.8C160.8,224.4,127.5,226.1,89.6,234.7z M72.3,337.4v-82.8
		c45-12.7,87.2-16.7,128.7-12.2c37.2,4,67.6,14.1,94.3,22.9c24.5,8.1,45.6,15.1,65.4,15.1c4.1,0,7.5-3.4,7.5-7.5s-3.4-7.5-7.5-7.5
		c-15.8,0-33.9-5.5-54.6-12.3c17.9-2.8,33.1-6.9,48.8-11.2c30.3-8.2,61.7-16.7,118.3-17.4v112.9H72.3z M477.7,49.4H67.9l-25-25
		h459.8L477.7,49.4z M57.3,60v188.8c0,0,0,0,0,0.1v0.1c0,0,0,0,0,0v92.9l-25,25V35L57.3,60z M67.9,352.4h409.8l25,25H42.9
		L67.9,352.4z M488.3,341.8V60l25-25v331.8L488.3,341.8z"/>
	<path class="number-art" d="M384.8,168.4c17.4,0,31.5-14.1,31.5-31.5s-14.1-31.5-31.5-31.5s-31.5,14.1-31.5,31.5S367.4,168.4,384.8,168.4z
		 M384.8,120.4c9.1,0,16.5,7.4,16.5,16.5s-7.4,16.5-16.5,16.5s-16.5-7.4-16.5-16.5S375.7,120.4,384.8,120.4z"/>
</g>
</svg>
