<?xml version="1.0" encoding="utf-8"?>
<!-- Generator: Adobe Illustrator 21.1.0, SVG Export Plug-In . SVG Version: 6.00 Build 0)  -->
<svg version="1.1" id="Calque_1" xmlns="http://www.w3.org/2000/svg" xmlns:xlink="http://www.w3.org/1999/xlink" x="0px" y="0px"
	 viewBox="0 0 454 502" style="enable-background:new 0 0 454 502;" xml:space="preserve">
<g>
	<path class="numbers-artist" d="M437,474.7h-39.7v-118c1.1-0.4,2.1-1.1,3-2.1c20.4-23.9,4.8-42.2-1.8-50c-1-1.2-2.2-2.6-2.6-3.2
		c-1.9-3.1-2-10.1-1.5-14c0.4-3.1-1.1-6.1-3.8-7.5c-2.7-1.5-6.1-1.1-8.4,0.9c-10.4,8.7-16,19.2-16.8,31.1
		c-1.5,22.8,15.7,42.1,16.4,42.9c0.2,0.2,0.4,0.4,0.6,0.5v119.5h-20.7v-15.4c0-35.2-9.4-62.4-27.9-80.7
		c-23.6-23.4-53.2-23.5-54.4-23.5h-37.6v-23.9c24-9.9,39.2-26.5,48.4-40.9c14.4-22.4,17.7-44,17.8-44.9c0.1-0.4,0.1-0.7,0.1-1.1
		v-1.6c5.3-1.3,9.9-4,13.5-8c10.6-11.8,10-30.3,9.2-37.7c-0.6-5.7-3.1-10.4-7.4-13.7c-1.1-0.9-2.4-1.6-3.6-2.3
		c7-1,13.1-3.7,18.1-7.9c13.4-11.3,13.4-29.7,13.4-30.4c0-15.5-6.3-30.9-18.7-45.8c-10.5-12.5-25-24.4-43.2-35.2
		C279,55.5,267.9,49.9,256.5,45c1.7-7.4,1.2-21.4-11.9-29.8c-3.5-2.2-8.1-1.2-10.4,2.3c-2.2,3.5-1.2,8.1,2.3,10.4
		c5.3,3.4,5.9,8.4,5.7,11.4c-19-7-38-11.7-54.2-13.2c-51.6-4.8-90.5,12.2-108.1,28.3c-8.5,7.8-13.1,16-13.1,23.7
		c0,16.4,10.9,25.8,18.4,30.4c-2,5.6-4.6,14.2-5.8,24.1c-2.3,18.5,1.2,34.3,10,46.3c-3.2,0.8-6.6,2.1-9.4,4.3
		c-4.3,3.3-6.8,8.1-7.4,13.7c-0.8,7.4-1.4,26,9.2,37.7c3.7,4.1,8.3,6.8,13.7,8.1v1.6c0,0.4,0,0.7,0.1,1.1
		c0.1,0.9,3.4,22.5,17.8,44.9c9.2,14.4,24.4,30.9,48.4,40.9v23.9h-37.5c-1.2,0-30.9,0.1-54.5,23.5c-18.5,18.4-27.9,45.5-27.9,80.7
		v15.4H15.5c-4.1,0-7.5,3.4-7.5,7.5s3.4,7.5,7.5,7.5H437c4.1,0,7.5-3.4,7.5-7.5C444.5,478.1,441.2,474.7,437,474.7z M380.3,312.7
		c0.2-2.3,0.6-4.5,1.3-6.6c0.4,1,0.9,2,1.4,2.9c1,1.7,2.4,3.4,4.1,5.3c7.6,8.9,12.4,16.3,3.9,27.9
		C387.2,337.3,379.4,325.3,380.3,312.7z M310.4,224.7c-0.7,0.8-1.5,1.5-2.4,2v-33.6c2.3,0.3,4.7,0.9,6.1,2c0.7,0.6,1.5,1.4,1.7,3.4
		C316.8,207.2,315.8,218.7,310.4,224.7z M90,65.5c23-21,65.1-27.4,96.6-24.4c27.6,2.6,65.7,16,95,33.5
		c20.4,12.2,54.6,37.2,54.6,68.2c0,0.1-0.1,12.3-8.1,19c-4.6,3.9-11.4,5.4-20,4.6v-12.5c3.4,2.3,8,1.4,10.3-1.9
		c2.4-3.4,1.6-8.1-1.8-10.5c-27.1-19.2-53.7-31.6-78.2-39.6c-0.7-0.3-1.4-0.6-2.1-0.7c-29.1-9.2-55-12.2-75.3-12.5
		c-33.7-0.5-57.7,5.8-65.8,8.3c-4.3-2.2-13.3-8-13.3-18.8C81.8,75.6,84,71,90,65.5z M97.7,157c-0.7,0.6-1.2,1.2-1.6,2
		c-5.8-18.5,1.3-40.2,4.2-48c7.6-2.3,29.1-7.7,58.8-7.4c-27.1,3.5-37.7,9.4-39.2,10.3c-2.2,1.4-3.6,3.8-3.6,6.4v20.8L97.7,157z
		 M93.1,224.7c-5.4-6-6.3-17.4-5.5-26.2c0.2-2,1-2.8,1.7-3.4c1.5-1.2,3.9-1.8,6.3-2.1v33.7C94.7,226.2,93.9,225.5,93.1,224.7z
		 M126.4,282.7c-11.7-18-15.3-35.8-15.8-38.9v-78l18-15.4c1.7-1.4,2.6-3.5,2.6-5.7v-19.5c2.7-1,7-2.4,13.1-3.8
		c11-2.5,30.4-5.4,60.6-5.4h28.6c18.8,6.1,38.9,15,59.5,27.8v99.9c-0.5,3.1-4.1,20.9-15.8,38.9c-16.8,25.8-41.9,40-74.7,42.2h-1.4
		C168.4,322.7,143.2,308.5,126.4,282.7z M169.4,370.1c4.1,0,7.5-3.4,7.5-7.5v-26.5c7.2,1.8,15,3.1,23.5,3.7c0.2,0,0.3,0,0.5,0h1.9
		c0.2,0,0.3,0,0.5,0c8.5-0.6,16.3-1.8,23.5-3.7v26.5c0,4.1,3.4,7.5,7.5,7.5h28.1c-2.9,30.8-28.9,54.9-60.5,54.9
		c-11.8,0-23.2-3.4-33-9.7c-5.1-3.3-10.9-0.7-17,2.3c0-0.2,0.1-0.4,0.1-0.5c1.8-7.1,3.3-13.3,0.1-17.9c-6.1-8.6-9.7-18.6-10.7-29
		H169.4z M57.1,459.3c0-88.2,64.5-89.2,67.3-89.2h2c1,13,5.3,25.5,12.6,36.4c-0.2,1.7-1,4.9-1.5,6.9c-2,8.1-3.7,15,1.1,19.6
		c5.4,5.1,12.7,1.5,19.1-1.6c1.4-0.7,3.6-1.8,5-2.3c11.8,7.1,25.3,10.9,39.2,10.9c39.8,0,72.5-30.9,75.5-69.9h2c0,0,0,0,0,0
		c0.6,0,24.7,0.2,43.8,19.1c15.6,15.5,23.5,39,23.5,70.1v15.4H57.1V459.3z"/>
	<circle class="numbers-artist" cx="148.6" cy="182" r="9"/>
	<circle class="numbers-artist" cx="255.1" cy="182" r="9"/>
	<path class="numbers-artist" d="M199.9,234.8h3.9c9.9,0,18-8.1,18-18c0-4.1-3.4-7.5-7.5-7.5s-7.5,3.4-7.5,7.5c0,1.7-1.3,3-3,3h-3.9
		c-1.7,0-3-1.3-3-3c0-4.1-3.4-7.5-7.5-7.5s-7.5,3.4-7.5,7.5C181.9,226.7,190,234.8,199.9,234.8z"/>
	<path class="numbers-artist" d="M248.3,274.8c2.6-3.2,2.1-7.9-1.1-10.5c-3.2-2.6-7.9-2.1-10.5,1.1c-0.1,0.1-9.1,9.9-33,9.9
		c-24.8,0-36.9-10.3-37.5-10.8c-3.1-2.7-7.8-2.5-10.6,0.5c-2.8,3.1-2.6,7.8,0.5,10.6c0.7,0.6,16.5,14.7,47.6,14.7
		C234.9,290.3,247.1,276.4,248.3,274.8z"/>
</g>
</svg>
