<?xml version="1.0" encoding="utf-8"?>
<!-- Generator: Adobe Illustrator 21.1.0, SVG Export Plug-In . SVG Version: 6.00 Build 0)  -->
<svg version="1.1" id="Calque_1" xmlns="http://www.w3.org/2000/svg" xmlns:xlink="http://www.w3.org/1999/xlink" x="0px" y="0px"
	 viewBox="0 0 981 547" style="enable-background:new 0 0 981 547;" xml:space="preserve">
<style type="text/css">
	.bus{fill:#861C48;}
	.tree{fill:#ED516A;}
</style>
<g>
	<path class="bus" d="M559,353.1c-21.7,0-39.3,18.1-39.3,40.3c0,22.2,17.6,40.3,39.3,40.3c21.7,0,39.3-18.1,39.3-40.3
		C598.2,371.2,580.6,353.1,559,353.1z M559,412.9c-10.2,0-18.4-8.7-18.4-19.5c0-10.7,8.3-19.5,18.4-19.5c10.2,0,18.4,8.7,18.4,19.5
		C577.4,404.2,569.1,412.9,559,412.9z"/>
	<path class="bus" d="M351.7,353.1c-21.7,0-39.3,18.1-39.3,40.3c0,22.2,17.6,40.3,39.3,40.3c21.7,0,39.3-18.1,39.3-40.3
		C391,371.2,373.4,353.1,351.7,353.1z M351.7,412.9c-10.2,0-18.4-8.7-18.4-19.5c0-10.7,8.3-19.5,18.4-19.5
		c10.2,0,18.4,8.7,18.4,19.5C370.2,404.2,361.9,412.9,351.7,412.9z"/>
	<rect x="422.7" y="383" class="bus" width="65.2" height="20.9"/>
	<path class="bus" d="M671.7,100.3h-18.1c-4.6-33-33-58.6-67.3-58.6h-262c-34.3,0-62.7,25.5-67.3,58.6H239
		c-15.8,0-28.7,13.2-28.7,29.4v92.9c0,16.2,12.9,29.4,28.7,29.4h17.4v154.1c0,32.7,23.3,60.1,54.1,66.5v18.3
		c0,22.5,17.3,40.8,38.7,40.8h6.1c21.3,0,38.7-18.3,38.7-40.8V474h122.8v16.9c0,22.5,17.3,40.8,38.7,40.8h6.1
		c21.3,0,38.7-18.3,38.7-40.8v-18.3c30.9-6.4,54.1-33.8,54.1-66.5V252h17.4c15.8,0,28.7-13.2,28.7-29.4v-92.9
		C700.4,113.5,687.5,100.3,671.7,100.3z M324.4,62.6h262c26,0,47.1,21.1,47.1,47.1v21.2H277.3v-21.2
		C277.3,83.7,298.4,62.6,324.4,62.6z M277.3,151.7h166.5v157.1H277.3V151.7z M464.6,151.7h168.8v157.1H464.6V151.7z M239,231.1
		c-4.3,0-7.8-3.8-7.8-8.5v-92.9c0-4.7,3.5-8.5,7.8-8.5h17.4v109.9L239,231.1L239,231.1z M373.1,490.9c0,11-8,20-17.8,20h-6.1
		c-9.8,0-17.8-9-17.8-20V474h41.7L373.1,490.9L373.1,490.9z M561.5,510.9h-6.1c-9.8,0-17.8-9-17.8-20V474h41.7v16.9
		C579.3,501.9,571.3,510.9,561.5,510.9z M586.3,453.1h-262c-26,0-47.1-21.1-47.1-47.1v-76.4h356.1v76.4
		C633.4,432,612.3,453.1,586.3,453.1z M679.5,222.6c0,4.7-3.5,8.5-7.8,8.5h-17.4V121.2h17.4c4.3,0,7.8,3.8,7.8,8.5V222.6z"/>
</g>
<g>
	<path class="tree" d="M869.5,310.2c3.3-3.3,3.3-8.6,0-11.9c-3.3-3.3-8.6-3.3-11.9,0l-49.3,49.3v-49.3c0,0,0-142.2,0-142.2
		c0-4.7-3.8-8.4-8.4-8.4s-8.4,3.8-8.4,8.4v121.8L742,228.6c-3.3-3.3-8.6-3.3-11.9,0c-3.3,3.3-3.3,8.6,0,11.9l61.3,61.3v228.8
		c0,4.7,3.8,8.4,8.4,8.4s8.4-3.8,8.4-8.4V371.4L869.5,310.2z"/>
	<g>
		<path class="tree" d="M718.3,337.3c0,5,4,9,9,9s9-4,9-9s-4-9-9-9S718.3,332.3,718.3,337.3z"/>
		<path class="tree" d="M872.5,127.6c0-5-4-9-9-9s-9,4-9,9c0,5,4,9,9,9S872.5,132.6,872.5,127.6z"/>
		<path class="tree" d="M851.5,94.5c0-5-4-9-9-9c-5,0-9,4-9,9c0,5,4,9,9,9C847.5,103.5,851.5,99.4,851.5,94.5z"/>
	</g>
	<g>
		<path class="tree" d="M767.8,428.6c-55.6-12-98.8-54.6-113.6-107.6v43.6c4.5,7.9,9.7,15.4,15.5,22.5c24,29.4,57.6,50,94.5,57.9
			c4.6,1,9-1.9,10-6.5C775.3,434.1,772.4,429.6,767.8,428.6z"/>
		<path class="tree" d="M930,175.2c2.4-10,3.5-20.3,3.5-30.7c0-73.8-60-133.8-133.8-133.8c-58.3,0-108,37.5-126.3,89.7
			c5.9,0.4,11.3,2.6,15.7,6.1c15.8-45.9,59.4-78.9,110.6-78.9c64.5,0,116.9,52.4,116.9,116.9c0,10.4-1.4,20.6-4,30.6
			c-0.7,2.7-0.1,5.6,1.7,7.7c23.5,27.3,36.4,62.2,36.4,98.3c0,70.7-50.1,132.7-119,147.6c-4.6,1-7.4,5.5-6.5,10
			c0.9,4,4.3,6.7,8.2,6.7c0.6,0,1.2-0.1,1.8-0.2c36.9-8,70.5-28.5,94.5-57.9c24.4-29.8,37.8-67.5,37.8-106.1
			C967.6,242.4,954.3,205,930,175.2z"/>
	</g>
</g>
<g>
	<path class="tree" d="M213.8,336.7c2.8-2.8,2.8-7.2,0-10c-2.8-2.8-7.4-2.8-10.2,0l-42.3,41.4v-41.4c0,0,0-119.3,0-119.3
		c0-3.9-3.2-7.1-7.2-7.1s-7.2,3.2-7.2,7.1v102.2l-42.3-41.4c-2.8-2.8-7.4-2.8-10.2,0c-2.8,2.8-2.8,7.2,0,10l52.5,51.4v192
		c0,3.9,3.2,7.1,7.2,7.1c4,0,7.2-3.2,7.2-7.1V388.1L213.8,336.7z"/>
	<g>
		<path class="tree" d="M84.2,359.4c0,4.2,3.5,7.5,7.7,7.5s7.7-3.4,7.7-7.5c0-4.2-3.5-7.5-7.7-7.5S84.2,355.2,84.2,359.4z"/>
		<path class="tree" d="M99.6,191.1c4.2,0,7.7-3.4,7.7-7.5c0-4.2-3.5-7.5-7.7-7.5s-7.7,3.4-7.7,7.5C91.9,187.7,95.3,191.1,99.6,191.1
			z"/>
		<path class="tree" d="M117.6,163.3c4.2,0,7.7-3.4,7.7-7.5c0-4.2-3.5-7.5-7.7-7.5s-7.7,3.4-7.7,7.5
			C109.9,159.9,113.4,163.3,117.6,163.3z"/>
	</g>
	<g>
		<path class="tree" d="M256.4,406.1v-16.7c-18.2,23.2-44.5,40.2-75,46.7c-3.9,0.8-6.4,4.6-5.5,8.4c0.7,3.3,3.7,5.6,7.1,5.6
			c0.5,0,1-0.1,1.5-0.2c27.3-5.8,52.5-19.4,72.2-39C256.5,409.3,256.4,407.7,256.4,406.1z"/>
		<path class="tree" d="M154,99.6c21.9,0,42.1,6.9,58.6,18.6c1.9-4.5,4.8-8.4,8.5-11.4c-18.9-13.4-42.1-21.3-67.1-21.3
			c-63.2,0-114.6,50.3-114.6,112.2c0,8.7,1,17.3,3,25.7c-20.8,25-32.2,56.4-32.2,88.8c0,32.4,11.5,64,32.4,89
			c20.6,24.7,49.4,41.9,81,48.6c3.9,0.8,7.7-1.6,8.6-5.4c0.8-3.8-1.6-7.6-5.5-8.4c-59.1-12.5-102-64.5-102-123.8
			c0-30.2,11.1-59.5,31.2-82.5c1.6-1.8,2.1-4.2,1.5-6.5c-2.3-8.3-3.5-17-3.5-25.6C53.8,143.6,98.8,99.6,154,99.6z"/>
	</g>
</g>
</svg>
