<?xml version="1.0" encoding="utf-8"?>
<svg version="1.1" xmlns="http://www.w3.org/2000/svg" xmlns:xlink="http://www.w3.org/1999/xlink" x="0px" y="0px"
	 viewBox="0 0 167.8 167.8" style="enable-background:new 0 0 167.8 167.8;" xml:space="preserve" class="icon-svg icon-svg--instagram">
<path d="M101.6,58.7H68.2c-5.4,0-9.6,4.4-9.6,9.6v33.5c0,5.4,4.4,9.6,9.6,9.6h33.5c5.4,0,9.6-4.4,9.6-9.6V68.3
	C111.3,63,106.9,58.7,101.6,58.7z M84.9,102.4c-9.6,0-17.4-7.7-17.4-17.4s7.7-17.4,17.4-17.4s17.4,7.7,17.4,17.4
	S94.4,102.4,84.9,102.4z M102.8,71.3c-2.2,0-4.1-1.9-4.1-4.1c0-2.2,1.9-4.1,4.1-4.1c2.2,0,4.1,1.9,4.1,4.1
	C106.9,69.4,105,71.3,102.8,71.3z"/>
<path d="M84.9,75c-5.5,0-10,4.5-10,10s4.5,10,10,10s10-4.5,10-10S90.4,75,84.9,75z"/>
<path d="M84.9,28.8c-31,0-56.1,25.1-56.1,56.1S53.9,141,84.9,141S141,115.9,141,84.9S115.9,28.8,84.9,28.8z M118.6,101.8
	c0,9.4-7.6,17-17,17H68.2c-9.4,0-17-7.6-17-17V68.3c0-9.4,7.6-17,17-17h33.5c9.4,0,17,7.6,17,17V101.8z"/>
<circle class="circle" cx="84.9" cy="84.9" r="52.3"/>
</svg>
