<?xml version="1.0" encoding="utf-8"?>
<svg version="1.1" xmlns="http://www.w3.org/2000/svg" xmlns:xlink="http://www.w3.org/1999/xlink" x="0px" y="0px"
	 viewBox="0 0 167.8 167.8" style="enable-background:new 0 0 167.8 167.8;" xml:space="preserve" class="icon-svg icon-svg--linkedin">
<g>
	<path d="M90.9,78.1v-0.1C90.9,78,90.8,78,90.9,78.1L90.9,78.1z"/>
	<path d="M84.9,28.8c-31,0-56.1,25.1-56.1,56.1S53.9,141,84.9,141c31,0,56.1-25.1,56.1-56.1S115.9,28.8,84.9,28.8z M70.1,112.5H56.7
		V72.2h13.4V112.5z M63.4,66.7L63.4,66.7c-4.6,0-7.5-3.1-7.5-7c0-4,3-7,7.6-7c4.6,0,7.4,3,7.5,7C71,63.6,68,66.7,63.4,66.7z
		 M118.4,112.5H105V91c0-5.4-1.9-9.1-6.8-9.1c-3.7,0-5.9,2.5-6.9,4.9c-0.4,0.9-0.4,2.1-0.4,3.3v22.5H77.5c0,0,0.2-36.5,0-40.3h13.4
		v5.7c1.8-2.7,5-6.7,12.1-6.7c8.8,0,15.4,5.8,15.4,18.1V112.5z"/>
</g>
<circle class="circle" cx="84.9" cy="84.9" r="52.3"/>
</svg>
