<?xml version="1.0" encoding="utf-8"?>
<!-- Generator: Adobe Illustrator 21.1.0, SVG Export Plug-In . SVG Version: 6.00 Build 0)  -->
<svg version="1.1" id="Calque_1" xmlns="http://www.w3.org/2000/svg" xmlns:xlink="http://www.w3.org/1999/xlink" x="0px" y="0px"
	 viewBox="0 0 108 86" style="enable-background:new 0 0 108 86;" xml:space="preserve">
<g>
	<path d="M22,16.1c1.8,1.5,2.7,3.2,2.7,5.2c0,2.5-1.3,4.5-3.8,6.1c-2.2,1.3-4.6,2-7.3,2c-1.9,0-3.7-0.3-5.4-1
		c-1.9-0.8-3.4-1.8-4.4-3.2c-0.2-0.3-0.2-0.5-0.1-0.8C3.8,24.3,4,24.1,4.2,24l6-2.8c0.3-0.2,0.8-0.1,1.5,0.2
		c0.8,0.3,1.4,0.5,1.8,0.5c0.5,0,1.1-0.1,1.6-0.3c0.7-0.3,1-0.6,1-1.1c0-0.9-0.8-1.4-2.5-1.3c-1.1,0-2.1-0.1-3.1-0.3
		c-2-0.4-3.8-1.3-5.4-2.7c-1.8-1.6-2.7-3.4-2.7-5.4c0-2.6,1.3-4.7,3.8-6.2c2.2-1.4,4.6-2.1,7.3-2.1c2.1,0,4.1,0.4,6,1.3
		c2.1,1,3.6,2.4,4.4,4.1c0.1,0.2,0.1,0.4,0.1,0.5c0,0.4-0.3,0.6-0.8,0.8L17,11.4c-0.5,0.2-0.8,0.2-0.9,0.1c-0.1-0.1-0.3-0.2-0.5-0.4
		c-0.5-0.3-1.1-0.5-2-0.5c-0.5,0-1.1,0.1-1.6,0.3c-0.7,0.3-1,0.6-1,1.1c0,0.5,0.3,0.8,1,1.1c0.5,0.2,1,0.3,1.6,0.3
		c1.3,0,2.8,0.3,4.4,0.8C19.7,14.7,21,15.4,22,16.1z"/>
	<path d="M38.6,3.6l12.5,24.8c0.1,0.2,0.1,0.3,0.1,0.4c0,0.4-0.4,0.6-1.2,0.6h-5.4c-0.6,0-1,0-1.2-0.1c-0.2-0.1-0.4-0.4-0.7-0.9
		c-0.4-0.7-1-1.1-1.9-1.1c-1.7,0-3.1,0-4.4,0c-1.5,0-2.9,0-4.4,0c-0.8,0-1.4,0.3-1.7,1c-0.2,0.5-0.5,0.8-0.6,0.9
		c-0.2,0.1-0.6,0.1-1.2,0.1l-2.8,0c-0.6,0-1.5,0-2.8,0c-0.8,0-1.3-0.2-1.3-0.6c0-0.1,0-0.3,0.1-0.5L34.4,3.6
		c0.5-0.9,1.2-1.3,2.1-1.3C37.4,2.2,38.1,2.7,38.6,3.6z M37.8,18.8c-0.2-0.4-0.5-1-0.9-1.9c-0.1-0.1-0.2-0.2-0.4-0.2
		c-0.1,0-0.2,0.1-0.4,0.2c-0.2,0.4-0.6,1.1-1,1.9c-0.1,0.3,0,0.5,0.3,0.6h2.1c0.2,0,0.3-0.1,0.3-0.3C37.8,19,37.8,18.9,37.8,18.8z"
		/>
	<path d="M57.6,2.4c0.6,0,0.9,0.3,0.9,0.9v25.3c0,0.6-0.3,0.9-0.9,0.9h-6.9c-0.6,0-0.9-0.3-0.9-0.9V3.3c0-0.6,0.3-0.9,0.9-0.9H57.6z
		"/>
	<path d="M80.1,2.4c0.6,0,0.9,0.3,0.9,0.9v25.6c0,0.5-0.2,0.8-0.5,0.8c-0.1,0-0.1,0-0.2,0c-0.5-0.1-0.8-0.3-1-0.4L70,23.2
		c-0.3-0.2-0.5-0.1-0.5,0.2c0,1,0,1.8,0,2.5v2.5c0,0.7-0.3,1-1,1h-3.4h-3.4c-0.6,0-0.9-0.3-0.9-0.9V3.1c0-0.5,0.2-0.8,0.7-0.7
		c0.5,0.1,0.8,0.2,0.9,0.3l9,6.1C71.7,8.9,71.8,9,72,9c0.2,0,0.3-0.2,0.3-0.6V3.3c0-0.6,0.3-0.9,1-0.9c1.3,0,2.4,0,3.4,0
		C77.8,2.4,79,2.4,80.1,2.4z"/>
	<path d="M83.3,2.5H104c0.7,0,1,0.3,1,0.8v6.4c0,0.5-0.3,0.8-1,0.8h-5.3c-0.5,0-0.7,0.3-0.7,0.8v17.2c0,0.6-0.3,0.9-0.9,0.9h-6.9
		c-0.6,0-0.9-0.3-0.9-0.9V11.3c0-0.6-0.2-0.8-0.7-0.8h-5.3c-0.7,0-1-0.3-1-0.8V3.3C82.3,2.7,82.6,2.5,83.3,2.5z"/>
	<path d="M12.1,29.2c0.6,0,0.9,0.3,0.9,0.9v16.7c0,0.6,0.3,0.9,0.8,0.9h7.1c0.6,0,0.9,0.3,0.9,0.9v6.9c0,0.6-0.3,0.9-0.9,0.9H5.2
		c-0.6,0-0.9-0.3-0.9-0.9V30.1c0-0.6,0.3-0.9,0.9-0.9H12.1z"/>
	<path d="M21.8,29.2l18.5,0c0.6,0,1,0.3,1,0.8v6.4c0,0.5-0.3,0.8-1,0.8h-9.8c-0.7,0-1,0.3-0.9,0.9c0,0.6,0.3,0.9,0.9,0.9h8.8
		c0.6,0,0.9,0.2,0.9,0.8v5.9c0,0.5-0.3,0.7-0.9,0.7h-8.9c-0.5,0-0.8,0.3-0.8,1c0,0.6,0.3,0.9,0.8,0.9h9.9c0.6,0,1,0.3,1,0.8v6.1
		c0,0.5-0.3,0.8-1,0.8c-2.1,0-5.1,0-9.2,0.1c-4.1,0-7.2,0.1-9.2,0.1c-0.6,0-0.9-0.3-0.9-0.9V30.1C21,29.5,21.3,29.2,21.8,29.2z"/>
	<path d="M55.1,28.3c4,0,7.4,1.4,10.2,4.2c2.8,2.8,4.2,6.2,4.2,10.2c0,4-1.4,7.4-4.2,10.2c-2.8,2.8-6.2,4.2-10.2,4.2
		c-4,0-7.4-1.4-10.2-4.2c-2.8-2.8-4.2-6.2-4.2-10.2c0-4,1.4-7.4,4.2-10.2C47.8,29.7,51.1,28.3,55.1,28.3z M55.1,37
		c-1.6,0-2.9,0.6-4,1.7c-1.1,1.1-1.7,2.5-1.7,4c0,1.6,0.6,2.9,1.7,4c1.1,1.1,2.4,1.7,4,1.7c1.6,0,2.9-0.6,4-1.7
		c1.1-1.1,1.7-2.4,1.7-4c0-1.6-0.6-2.9-1.7-4C58,37.5,56.7,37,55.1,37z"/>
	<path d="M88.7,29.2c0.6,0,0.9,0.3,0.9,0.9v25.6c0,0.5-0.2,0.8-0.5,0.8c-0.1,0-0.1,0-0.2,0c-0.5-0.1-0.8-0.3-1-0.4L78.6,50
		c-0.3-0.2-0.5-0.1-0.5,0.2c0,1,0,1.8,0,2.5v2.5c0,0.7-0.4,1-1,1h-3.4h-3.4c-0.6,0-0.9-0.3-0.9-0.9V29.9c0-0.5,0.2-0.8,0.7-0.7
		c0.5,0.1,0.8,0.2,0.9,0.3l9,6.1c0.2,0.2,0.4,0.2,0.5,0.2c0.2,0,0.3-0.2,0.3-0.6v-5.1c0-0.6,0.3-0.9,1-0.9c1.3,0,2.4,0,3.4,0
		C86.4,29.2,87.6,29.2,88.7,29.2z"/>
	<path d="M104.3,29.2c0.5,0,0.7,0.2,0.7,0.7l-1,6.4c-0.1,0.5-0.3,0.8-0.7,0.8h-2.8c-0.5,0-0.8-0.1-0.9-0.6c0,0,0-0.1,0-0.1
		c0-0.1,0.2-0.3,0.5-0.8c0.2-0.2,0.1-0.3-0.3-0.3h-0.9c-0.5,0-0.7-0.2-0.7-0.7v-4.7c0-0.5,0.2-0.7,0.7-0.7H104.3z"/>
	<path d="M19.3,57.2L31.9,82c0.1,0.2,0.1,0.3,0.1,0.4c0,0.4-0.4,0.6-1.2,0.6h-5.4c-0.6,0-1,0-1.2-0.1c-0.2-0.1-0.4-0.4-0.7-0.9
		c-0.4-0.7-1-1.1-1.9-1.1c-1.7,0-3.1,0-4.4,0c-1.5,0-2.9,0-4.4,0c-0.8,0-1.4,0.3-1.7,1c-0.2,0.5-0.5,0.8-0.6,0.9
		C10.3,83,9.9,83,9.2,83l-2.8,0c-0.6,0-1.5,0-2.8,0c-0.8,0-1.3-0.2-1.3-0.6c0-0.1,0-0.3,0.1-0.5l12.5-24.7c0.5-0.9,1.2-1.3,2.1-1.3
		C18.1,55.8,18.9,56.3,19.3,57.2z M18.5,72.4c-0.2-0.4-0.5-1-0.9-1.9c-0.1-0.1-0.3-0.2-0.4-0.2c-0.1,0-0.2,0.1-0.4,0.2
		c-0.2,0.4-0.6,1.1-1,1.9c-0.1,0.3,0,0.5,0.3,0.6h2.1c0.2,0,0.3-0.1,0.3-0.3C18.5,72.6,18.5,72.5,18.5,72.4z"/>
	<path d="M38.6,76.5c-0.1-0.2-0.3-0.3-0.5-0.3c-0.2,0-0.3,0.1-0.4,0.5v5.5c0,0.6-0.3,0.9-0.9,0.9H30c-0.6,0-0.9-0.3-0.9-0.9V56.9
		c0-0.6,0.3-0.9,0.8-0.9L41.4,56c2.4,0,4.5,0.6,6.2,2c1.8,1.4,2.9,3.2,3.4,5.5c0.2,0.7,0.2,1.5,0.2,2.2c0,1.3-0.2,2.6-0.7,3.9
		c-0.8,2-2.1,3.6-4,4.6c-0.3,0.2-0.4,0.3-0.4,0.6c0,0.2,0.1,0.4,0.3,0.7l4.5,6.8c0.2,0.2,0.2,0.4,0.2,0.5c0,0.2-0.2,0.3-0.5,0.3
		h-6.9c-0.6,0-1-0.3-1.4-0.9L38.6,76.5z M38.8,64.1h-0.2c-0.6,0-0.8,0.3-0.9,0.8V66v1.1c0,0.6,0.3,0.8,0.8,0.8l0.3,0
		c1.5-0.1,2.6-0.2,3.2-0.4c0.7-0.2,1.1-0.8,1.1-1.6c0-0.8-0.4-1.3-1.1-1.6C41.4,64.2,40.4,64.1,38.8,64.1z"/>
	<path d="M50.1,56.1h18.4c0.7,0,1,0.3,1,0.8v6.4c0,0.5-0.3,0.8-1,0.8h-4.2c-0.5,0-0.7,0.3-0.7,0.8v17.2c0,0.6-0.3,0.9-0.9,0.9h-6.9
		c-0.6,0-0.9-0.3-0.9-0.9V64.9c0-0.6-0.2-0.8-0.7-0.8h-4.2c-0.7,0-1-0.3-1-0.8v-6.4C49,56.3,49.4,56.1,50.1,56.1z"/>
</g>
</svg>
