<?xml version="1.0" encoding="utf-8"?>
<!-- Generator: Adobe Illustrator 21.1.0, SVG Export Plug-In . SVG Version: 6.00 Build 0)  -->
<svg class="objectives-svg" version="1.1" id="Calque_1" xmlns="http://www.w3.org/2000/svg" xmlns:xlink="http://www.w3.org/1999/xlink" x="0px" y="0px"
	 viewBox="0 0 502 364" style="enable-background:new 0 0 502 364;" xml:space="preserve">
<path class="obj-tree" d="M107.2,261.5c31.5-3.7,56-30.6,56-63c0-56.3-54.4-174.2-56.7-179.2c-1.2-2.6-3.9-4.3-6.8-4.3
	c-2.9,0-5.6,1.7-6.8,4.3c-2.3,5-56.7,122.8-56.7,179.2c0,32.5,24.5,59.3,56,63v73c5,0,10,0,15-0.4V261.5z M92.2,166.5v32
	c0,0,0,0,0,0v5.9l-11.2-11.2c-2.9-2.9-7.7-2.9-10.6,0c-2.9,2.9-2.9,7.7,0,10.6l21.8,21.8v20.8c-23.2-3.6-41-23.7-41-47.9
	c0-41.6,33.7-123.6,48.5-157.6c14.8,33.9,48.5,116,48.5,157.6c0,24.2-17.8,44.3-41,47.9v-23.9c0,0,0,0,0,0v-20.9l21.8-21.8
	c2.9-2.9,2.9-7.7,0-10.6c-2.9-2.9-7.7-2.9-10.6,0l-11.2,11.2v-13.9c0-4.1-3.4-7.5-7.5-7.5C95.6,159,92.2,162.4,92.2,166.5z"/>
<polygon class="obj-tree" points="165.5,334.9 180.8,334.9 180.9,334.6 165.5,334.6 "/>
<path class="obj-table" d="M323.7,295h-15.9c0,0-0.1,0-0.1,0h-0.5v-17h8.5c4.1,0,7.5-3.4,7.5-7.5c0-4.1-3.4-7.5-7.5-7.5h-8.5v-9h8.5
	c4.1,0,7.5-3.4,7.5-7.5c0-4.1-3.4-7.5-7.5-7.5h-144c-4.1,0-7.5,3.4-7.5,7.5c0,4.1,3.4,7.5,7.5,7.5h8.5v9h-8.5
	c-4.1,0-7.5,3.4-7.5,7.5c0,4.1,3.4,7.5,7.5,7.5h8.5v17h-0.5c0,0-0.1,0-0.1,0h-15.9c-4.1,0-7.5,3.4-7.5,7.5c0,4.1,3.4,7.5,7.5,7.5
	h6.8l-5,24.6h15.3l5-24.6h115.7l5,24.6H322l-5-24.6h6.8c4.1,0,7.5-3.4,7.5-7.5C331.2,298.4,327.9,295,323.7,295z M292.2,295h-97v-17
	h97V295z M292.2,263h-97v-9h97V263z"/>
<path class="obj-table" d="M475.7,335h-48.5v-0.1h-15v0.1h-49v-0.1h-15v0.1H322l-0.1-0.4h-15.3l0.1,0.4H180.8l0-0.1h-15.3l0,0.1h-58.2
	v-0.9c-5,0.4-10,0.4-15,0.4v0.5H27.7c-4.1,0-7.5,3.4-7.5,7.5c0,4.1,3.4,7.5,7.5,7.5h448c4.1,0,7.5-3.4,7.5-7.5
	C483.2,338.4,479.9,335,475.7,335z M305.1,335.4h43.5H305.1z"/>
<path class="obj-tree" d="M427.2,269.3c18.2-3.3,32-18.6,32-36.8c0-9.2-3.7-32.2-9.7-53.3c-8.6-30.2-18-44.2-29.8-44.2
	c-11.8,0-21.3,14.1-29.8,44.2c-6,21-9.7,44-9.7,53.3c0,18.2,13.8,33.5,32,36.8v65.6h15V269.3z M412.2,238.5v15.4
	c-9.9-2.9-17-11.4-17-21.4c0-6.7,2.9-26.7,8.5-46.9c8-29.4,14.8-34.7,16-35.5c1.3,0.8,8,6.2,16,35.5c5.5,20.2,8.5,40.2,8.5,46.9
	c0,10-7.1,18.5-17,21.4v-15.4c0-4.1-3.4-7.5-7.5-7.5S412.2,234.4,412.2,238.5z"/>
<path class="obj-table" d="M363.2,148.8c9.3-3.1,16-11.9,16-22.3v-32c0-4.1-3.4-7.5-7.5-7.5h-8.5v-9h16.5c4.1,0,7.5-3.4,7.5-7.5
	c0-4.1-3.4-7.5-7.5-7.5h-48c-4.1,0-7.5,3.4-7.5,7.5c0,4.1,3.4,7.5,7.5,7.5h16.5v9h-8.5c-4.1,0-7.5,3.4-7.5,7.5v32
	c0,10.3,6.7,19.1,16,22.3v186.1h15V148.8z M347.2,126.5V102h17v24.5c0,4.7-3.8,8.5-8.5,8.5S347.2,131.2,347.2,126.5z"/>
</svg>
