<?xml version="1.0" encoding="utf-8"?>
<!-- Generator: Adobe Illustrator 21.1.0, SVG Export Plug-In . SVG Version: 6.00 Build 0)  -->
<svg version="1.1" id="Calque_1" xmlns="http://www.w3.org/2000/svg" xmlns:xlink="http://www.w3.org/1999/xlink" x="0px" y="0px"
	 viewBox="0 0 570 532" style="enable-background:new 0 0 570 532;" xml:space="preserve">
<style type="text/css">
	.parking-sign{fill:#FED178;}
	.car{fill:#861C48;}
</style>
<g>
	<g>
		<path class="parking-sign" d="M535.3,14H392.6c-5,0-8.4,3.4-8.4,8.4v142.7c0,5,3.4,8.4,8.4,8.4h58.8v260.2h-16.8c-5,0-8.4,3.4-8.4,8.4v25.2
			h-16.8c-5,0-8.4,3.4-8.4,8.4v33.6c0,5,3.4,8.4,8.4,8.4h100.7c5,0,8.4-3.4,8.4-8.4v-33.6c0-5-3.4-8.4-8.4-8.4h-16.8v-25.2
			c0-5-3.4-8.4-8.4-8.4h-16.8V173.5h67.1c5,0,8.4-3.4,8.4-8.4V22.4C543.7,17.4,540.3,14,535.3,14z M501.7,500.8h-83.9V484h16.8h50.4
			h16.8L501.7,500.8L501.7,500.8z M476.5,467.2h-33.6v-16.8h33.6V467.2z M526.9,156.7H401V30.8h125.9V156.7z"/>
		<path class="parking-sign" d="M451.3,139.9c5,0,8.4-3.4,8.4-8.4v-16.8h8.4c18.5,0,33.6-15.1,33.6-33.6s-15.1-33.6-33.6-33.6h-16.8
			c-5,0-8.4,3.4-8.4,8.4v50.4v25.2C442.9,136.5,446.3,139.9,451.3,139.9z M484.9,81.2c0,9.2-7.6,16.8-16.8,16.8h-8.4V64.4h8.4
			C477.4,64.4,484.9,71.9,484.9,81.2z"/>
	</g>
</g>
<g>
	<g>
		<path class="car" d="M395.9,425.3V333c0-14.3-10.9-25.2-25.2-25.2h-4.2c-4.2,0-7.6-2.5-8.4-5.9l-29.4-102.4v-0.8
			c-6.7-15.1-21.8-25.2-38.6-25.2H132.4c-16.8,0-31.9,10.1-38.6,25.2v0.8L64.4,301.9c-1.7,3.4-5,5.9-8.4,5.9h-4.2
			c-14.3,0-25.2,10.9-25.2,25.2v92.3c0,14.3,10.9,25.2,25.2,25.2v42c0,14.3,10.9,25.2,25.2,25.2h16.8c14.3,0,25.2-10.9,25.2-25.2
			v-42h184.7v42c0,14.3,10.9,25.2,25.2,25.2h16.8c14.3,0,25.2-10.9,25.2-25.2v-42C385,450.5,395.9,439.6,395.9,425.3z M102.2,492.4
			c0,5-3.4,8.4-8.4,8.4H77c-5,0-8.4-3.4-8.4-8.4v-42h33.6L102.2,492.4L102.2,492.4z M354,492.4c0,5-3.4,8.4-8.4,8.4h-16.8
			c-5,0-8.4-3.4-8.4-8.4v-42H354L354,492.4L354,492.4z M379.1,425.3c0,5-3.4,8.4-8.4,8.4h-8.4H312H110.6H60.2h-8.4
			c-5,0-8.4-3.4-8.4-8.4V333c0-5,3.4-8.4,8.4-8.4H56c10.9,0,21-7.6,24.3-18.5l29.4-101.6c4.2-8.4,12.6-14.3,22.7-14.3h157.8
			c9.2,0,18.5,5,22.7,14.3l29.4,101.6c3.4,10.9,13.4,18.5,24.3,18.5h4.2c5,0,8.4,3.4,8.4,8.4L379.1,425.3L379.1,425.3z"/>
		<path class="car" d="M102.2,341.3c-18.5,0-33.6,15.1-33.6,33.6s15.1,33.6,33.6,33.6s33.6-15.1,33.6-33.6S120.6,341.3,102.2,341.3z
			 M102.2,391.7c-9.2,0-16.8-7.6-16.8-16.8s7.6-16.8,16.8-16.8s16.8,7.6,16.8,16.8S111.4,391.7,102.2,391.7z"/>
		<path class="car" d="M320.4,341.3c-18.5,0-33.6,15.1-33.6,33.6s15.1,33.6,33.6,33.6s33.6-15.1,33.6-33.6S338.9,341.3,320.4,341.3z
			 M320.4,391.7c-9.2,0-16.8-7.6-16.8-16.8s7.6-16.8,16.8-16.8s16.8,7.6,16.8,16.8S329.6,391.7,320.4,391.7z"/>
		<path class="car" d="M228.1,383.3h-33.6c-5,0-8.4,3.4-8.4,8.4s3.4,8.4,8.4,8.4h33.6c5,0,8.4-3.4,8.4-8.4
			C236.5,386.7,233.1,383.3,228.1,383.3z"/>
		<path class="car" d="M244.9,349.7h-67.1c-5,0-8.4,3.4-8.4,8.4s3.4,8.4,8.4,8.4h67.1c5,0,8.4-3.4,8.4-8.4
			C253.2,353.1,249.9,349.7,244.9,349.7z"/>
		<path class="car" d="M130.7,307.8h162c5,0,10.1-2.5,13.4-6.7s4.2-10.1,2.5-15.1l-20.1-67.1c-1.7-6.7-8.4-11.8-15.9-11.8H150.8
			c-7.6,0-13.4,4.2-15.9,11.8L114.8,286c-1.7,5-0.8,10.9,2.5,15.1C120.6,305.3,125.7,307.8,130.7,307.8z M150.8,223.8h121.7
			l20.1,67.1h-162L150.8,223.8z"/>
	</g>
</g>
</svg>
