<?xml version="1.0" encoding="utf-8"?>
<!-- Generator: Adobe Illustrator 21.1.0, SVG Export Plug-In . SVG Version: 6.00 Build 0)  -->
<svg version="1.1" id="Calque_1" xmlns="http://www.w3.org/2000/svg" xmlns:xlink="http://www.w3.org/1999/xlink" x="0px" y="0px"
	 viewBox="0 0 335 345" style="enable-background:new 0 0 335 345;" xml:space="preserve">
<style type="text/css">
	.st0{clip-path:url(#SVGID_2_);}
	.st1{clip-path:url(#SVGID_4_);fill:#A02A52;}
	.st2{clip-path:url(#SVGID_6_);}
	.st3{clip-path:url(#SVGID_8_);fill:#A02A52;}
	.st4{clip-path:url(#SVGID_10_);}
	.st5{clip-path:url(#SVGID_12_);fill:#A02A52;}
	.st6{clip-path:url(#SVGID_14_);}
	.st7{clip-path:url(#SVGID_16_);fill:#A02A52;}
	.st8{clip-path:url(#SVGID_18_);}
	.st9{clip-path:url(#SVGID_20_);fill:#A02A52;}
	.st10{clip-path:url(#SVGID_22_);}
	.st11{clip-path:url(#SVGID_24_);fill:#A02A52;}
	.st12{fill:url(#);}
	.st13{clip-path:url(#SVGID_26_);}
	.st14{clip-path:url(#SVGID_28_);fill:#A02A52;}
	.st15{clip-path:url(#SVGID_30_);}
	.st16{clip-path:url(#SVGID_32_);fill:#A02A52;}
	.st17{clip-path:url(#SVGID_34_);}
	.st18{clip-path:url(#SVGID_36_);fill:#A02A52;}
	.st19{fill:url(#);stroke:#000000;stroke-miterlimit:10;}
	.st20{clip-path:url(#SVGID_38_);}
	.st21{clip-path:url(#SVGID_40_);fill:#A02A52;}
	.st22{clip-path:url(#SVGID_42_);}
	.st23{clip-path:url(#SVGID_44_);fill:#A02A52;}
	.st24{clip-path:url(#SVGID_46_);}
	.st25{clip-path:url(#SVGID_48_);fill:#A02A52;}
	.st26{clip-path:url(#SVGID_50_);}
	.st27{clip-path:url(#SVGID_52_);fill:#A02A52;}
	.st28{clip-path:url(#SVGID_54_);}
	.st29{clip-path:url(#SVGID_56_);fill:#A02A52;}
	.st30{clip-path:url(#SVGID_58_);}
	.st31{clip-path:url(#SVGID_60_);fill:#A02A52;}
	.st32{clip-path:url(#SVGID_62_);}
	.st33{clip-path:url(#SVGID_64_);fill:#A02A52;}
	.st34{clip-path:url(#SVGID_66_);}
	.st35{clip-path:url(#SVGID_68_);fill:#A02A52;}
	.st36{clip-path:url(#SVGID_70_);}
	.st37{clip-path:url(#SVGID_72_);fill:#A02A52;}
	.st38{clip-path:url(#SVGID_74_);}
	.st39{clip-path:url(#SVGID_76_);fill:#A02A52;}
	.st40{clip-path:url(#SVGID_78_);}
	.st41{clip-path:url(#SVGID_80_);fill:#A02A52;}
	.st42{clip-path:url(#SVGID_82_);}
	.st43{clip-path:url(#SVGID_84_);fill:#A02A52;}
	.st44{clip-path:url(#SVGID_86_);}
	.st45{clip-path:url(#SVGID_88_);fill:#A02A52;}
	.st46{clip-path:url(#SVGID_90_);}
	.st47{clip-path:url(#SVGID_92_);fill:#A02A52;}
	.st48{fill:none;}
</style>
<g>
	<g>
		<defs>
			<path id="SVGID_65_" d="M143.1,128.7c7.5,0,13.6-6.1,13.6-13.6c0-7.5-6.1-13.6-13.6-13.6c-7.5,0-13.6,6.1-13.6,13.6
				C129.5,122.6,135.6,128.7,143.1,128.7"/>
		</defs>
		<clipPath id="SVGID_2_">
			<use xlink:href="#SVGID_65_"  style="overflow:visible;"/>
		</clipPath>
		<g class="st0">
			<defs>
				<rect id="SVGID_67_" x="75.3" y="-280.1" width="709.4" height="1662.2"/>
			</defs>
			<clipPath id="SVGID_4_">
				<use xlink:href="#SVGID_67_"  style="overflow:visible;"/>
			</clipPath>
			<rect x="127" y="99" class="st1" width="32.1" height="32.1"/>
		</g>
	</g>
	<g>
		<defs>
			<path id="SVGID_69_" d="M260.1,54.7c7.5,0,13.6-6.1,13.6-13.6c0-7.5-6.1-13.6-13.6-13.6c-7.5,0-13.6,6.1-13.6,13.6
				C246.5,48.6,252.6,54.7,260.1,54.7"/>
		</defs>
		<clipPath id="SVGID_6_">
			<use xlink:href="#SVGID_69_"  style="overflow:visible;"/>
		</clipPath>
		<g class="st2">
			<defs>
				<rect id="SVGID_71_" x="192.3" y="-354.1" width="709.4" height="1662.2"/>
			</defs>
			<clipPath id="SVGID_8_">
				<use xlink:href="#SVGID_71_"  style="overflow:visible;"/>
			</clipPath>
			<rect x="244" y="25" class="st3" width="32.1" height="32.1"/>
		</g>
	</g>
	<g>
		<defs>
			<path id="SVGID_73_" d="M143.1,323.7c7.5,0,13.6-6.1,13.6-13.6c0-7.5-6.1-13.6-13.6-13.6c-7.5,0-13.6,6.1-13.6,13.6
				C129.5,317.6,135.6,323.7,143.1,323.7"/>
		</defs>
		<clipPath id="SVGID_10_">
			<use xlink:href="#SVGID_73_"  style="overflow:visible;"/>
		</clipPath>
		<g class="st4">
			<defs>
				<rect id="SVGID_75_" x="75.3" y="-85.1" width="709.4" height="1662.2"/>
			</defs>
			<clipPath id="SVGID_12_">
				<use xlink:href="#SVGID_75_"  style="overflow:visible;"/>
			</clipPath>
			<rect x="127" y="294" class="st5" width="32.1" height="32.1"/>
		</g>
	</g>
	<g>
		<defs>
			<polygon id="SVGID_77_" points="237.3,238.8 237.3,265.5 237.3,265.7 264.5,275.4 264.5,248.5 			"/>
		</defs>
		<clipPath id="SVGID_14_">
			<use xlink:href="#SVGID_77_"  style="overflow:visible;"/>
		</clipPath>
		<g class="st6">
			<defs>
				<rect id="SVGID_79_" x="113.3" y="-138.1" width="709.4" height="1662.2"/>
			</defs>
			<clipPath id="SVGID_16_">
				<use xlink:href="#SVGID_79_"  style="overflow:visible;"/>
			</clipPath>
			<rect x="234.8" y="236.3" class="st7" width="32.1" height="41.5"/>
		</g>
	</g>
	<g>
		<defs>
			<polygon id="SVGID_81_" points="14.3,42.8 14.3,69.5 14.3,69.7 41.5,79.4 41.5,52.5 			"/>
		</defs>
		<clipPath id="SVGID_18_">
			<use xlink:href="#SVGID_81_"  style="overflow:visible;"/>
		</clipPath>
		<g class="st8">
			<defs>
				<rect id="SVGID_83_" x="-109.7" y="-334.1" width="709.4" height="1662.2"/>
			</defs>
			<clipPath id="SVGID_20_">
				<use xlink:href="#SVGID_83_"  style="overflow:visible;"/>
			</clipPath>
			<rect x="11.8" y="40.3" class="st9" width="32.1" height="41.5"/>
		</g>
	</g>
	<g>
		<defs>
			<rect id="SVGID_85_" x="52.7" y="210.5" width="27.2" height="27.2"/>
		</defs>
		<clipPath id="SVGID_22_">
			<use xlink:href="#SVGID_85_"  style="overflow:visible;"/>
		</clipPath>
		<g class="st10">
			<defs>
				<rect id="SVGID_87_" x="-35.7" y="-171.1" width="709.4" height="1662.2"/>
			</defs>
			<clipPath id="SVGID_24_">
				<use xlink:href="#SVGID_87_"  style="overflow:visible;"/>
			</clipPath>
			<rect x="50.2" y="208" class="st11" width="32.1" height="32.1"/>
		</g>
	</g>
	<g>
		<defs>
			<rect id="SVGID_89_" x="272.7" y="138.5" width="27.2" height="27.2"/>
		</defs>
		<clipPath id="SVGID_26_">
			<use xlink:href="#SVGID_89_"  style="overflow:visible;"/>
		</clipPath>
		<g class="st13">
			<defs>
				<rect id="SVGID_91_" x="184.3" y="-243.1" width="709.4" height="1662.2"/>
			</defs>
			<clipPath id="SVGID_28_">
				<use xlink:href="#SVGID_91_"  style="overflow:visible;"/>
			</clipPath>
			<rect x="270.2" y="136" class="st14" width="32.1" height="32.1"/>
		</g>
	</g>
	<rect y="-0.5" class="st48" width="335" height="345"/>
</g>
</svg>
