<?xml version="1.0" encoding="utf-8"?>
<svg version="1.1" xmlns="http://www.w3.org/2000/svg" xmlns:xlink="http://www.w3.org/1999/xlink" x="0px" y="0px"
	 viewBox="0 0 167.8 167.8" style="enable-background:new 0 0 167.8 167.8;" xml:space="preserve" class="icon-svg icon-svg--pinterest">
<path d="M85.3,28.8c-31,0-56.1,25.1-56.1,56.1c0,31,25.1,56.1,56.1,56.1s56.1-25.1,56.1-56.1C141.4,53.9,116.3,28.8,85.3,28.8z
	 M89.8,103.9c-4.2-0.3-6-2.4-9.3-4.5c-1.8,9.6-4.1,18.8-10.7,23.6c-2-14.5,3-25.4,5.3-36.9c-4-6.7,0.5-20.2,8.9-16.9
	c10.4,4.1-9,25,4,27.6c13.6,2.7,19.1-23.5,10.7-32c-12.1-12.3-35.3-0.3-32.5,17.4c0.7,4.3,5.2,5.6,1.8,11.6
	c-7.8-1.7-10.1-7.8-9.8-16c0.5-13.4,12-22.7,23.6-24c14.6-1.6,28.4,5.4,30.3,19.1C114.2,88.3,105.5,105.1,89.8,103.9z"/>
<circle class="circle" cx="84.9" cy="84.9" r="52.3"/>
</svg>
