<?xml version="1.0" encoding="utf-8"?>
<!-- Generator: Adobe Illustrator 21.1.0, SVG Export Plug-In . SVG Version: 6.00 Build 0)  -->
<svg version="1.1" id="Calque_1" xmlns="http://www.w3.org/2000/svg" xmlns:xlink="http://www.w3.org/1999/xlink" x="0px" y="0px"
	 viewBox="0 0 482 258" style="enable-background:new 0 0 482 258;" xml:space="preserve">
<g>
	<path class="number-ticket" d="M465,89.4c4.1,0,7.5-3.4,7.5-7.5v-48c0-13-10.5-23.5-23.5-23.5H33c-13,0-23.5,10.5-23.5,23.5v48
		c0,4.1,3.4,7.5,7.5,7.5c22.3,0,40.5,18.2,40.5,40.5S39.4,170.4,17,170.4c-4.1,0-7.5,3.4-7.5,7.5v48c0,13,10.5,23.5,23.5,23.5h416
		c13,0,23.5-10.5,23.5-23.5v-48c0-4.1-3.4-7.5-7.5-7.5c-22.3,0-40.5-18.2-40.5-40.5S442.7,89.4,465,89.4z M409.5,129.9
		c0,28.1,20.9,51.3,48,55v41c0,4.7-3.8,8.5-8.5,8.5h-80.5c0-0.2,0-0.3,0-0.5v-16c0-4.1-3.4-7.5-7.5-7.5s-7.5,3.4-7.5,7.5v16
		c0,0.2,0,0.3,0,0.5H33c-4.7,0-8.5-3.8-8.5-8.5v-41c27.1-3.7,48-26.9,48-55s-20.9-51.3-48-55v-41c0-4.7,3.8-8.5,8.5-8.5h320.5
		c0,0.2,0,0.3,0,0.5v16c0,4.1,3.4,7.5,7.5,7.5s7.5-3.4,7.5-7.5v-16c0-0.2,0-0.3,0-0.5H449c4.7,0,8.5,3.8,8.5,8.5v41
		C430.5,78.6,409.5,101.8,409.5,129.9z"/>
	<path class="number-ticket" d="M361,114.4c-4.1,0-7.5,3.4-7.5,7.5v16c0,4.1,3.4,7.5,7.5,7.5s7.5-3.4,7.5-7.5v-16
		C368.5,117.8,365.2,114.4,361,114.4z"/>
	<path class="number-ticket" d="M361,66.4c-4.1,0-7.5,3.4-7.5,7.5v16c0,4.1,3.4,7.5,7.5,7.5s7.5-3.4,7.5-7.5v-16
		C368.5,69.8,365.2,66.4,361,66.4z"/>
	<path class="number-ticket" d="M361,162.4c-4.1,0-7.5,3.4-7.5,7.5v16c0,4.1,3.4,7.5,7.5,7.5s7.5-3.4,7.5-7.5v-16
		C368.5,165.8,365.2,162.4,361,162.4z"/>
	<path class="number-ticket" d="M305,58.4H121c-8.5,0-15.5,7-15.5,15.5v112c0,8.5,7,15.5,15.5,15.5h184c8.5,0,15.5-7,15.5-15.5v-112
		C320.5,65.4,313.6,58.4,305,58.4z M305.5,185.9c0,0.3-0.2,0.5-0.5,0.5H121c-0.3,0-0.5-0.2-0.5-0.5v-112c0-0.3,0.2-0.5,0.5-0.5h184
		c0.3,0,0.5,0.2,0.5,0.5V185.9z"/>
	<path class="number-ticket" d="M273,106.4H153c-4.1,0-7.5,3.4-7.5,7.5s3.4,7.5,7.5,7.5h120c4.1,0,7.5-3.4,7.5-7.5S277.2,106.4,273,106.4z"/>
	<path class="number-ticket" d="M177,138.4h-24c-4.1,0-7.5,3.4-7.5,7.5s3.4,7.5,7.5,7.5h24c4.1,0,7.5-3.4,7.5-7.5S181.2,138.4,177,138.4z"/>
	<path class="number-ticket" d="M273,138.4h-64c-4.1,0-7.5,3.4-7.5,7.5s3.4,7.5,7.5,7.5h64c4.1,0,7.5-3.4,7.5-7.5S277.2,138.4,273,138.4z"/>
</g>
</svg>
