<?xml version="1.0" encoding="utf-8"?>
<svg version="1.1" xmlns="http://www.w3.org/2000/svg" xmlns:xlink="http://www.w3.org/1999/xlink" x="0px" y="0px"
	 viewBox="0 0 167.8 167.8" style="enable-background:new 0 0 167.8 167.8;" xml:space="preserve" class="icon-svg icon-svg--twitter">
<path class="twitter" d="M86.4,28.8c-31-0.8-56.8,23.6-57.6,54.6s23.6,56.7,54.6,57.6c31,0.8,56.7-23.6,57.6-54.6C141.8,55.4,117.4,29.6,86.4,28.8z
	 M112.6,76.1v1.7c0,17.7-13.5,38.2-38.2,38.2c-7.6,0-14.6-2.2-20.6-6c1,0.1,2.1,0.2,3.2,0.2c6.3,0,12.1-2.1,16.7-5.7
	c-5.9-0.1-10.8-4-12.5-9.3c0.8,0.2,1.7,0.2,2.5,0.2c1.2,0,2.4-0.2,3.5-0.5c-6.1-1.2-10.8-6.7-10.8-13.1v-0.2c1.8,1,3.9,1.6,6.1,1.7
	c-3.6-2.4-6-6.5-6-11.2c0-2.5,0.7-4.8,1.8-6.7c6.6,8.1,16.5,13.5,27.6,14c-0.2-1-0.3-2-0.3-3.1c0-7.4,6-13.4,13.4-13.4
	c3.9,0,7.3,1.6,9.8,4.2c3.1-0.6,5.9-1.7,8.5-3.3c-1,3.1-3.1,5.8-5.9,7.4c2.7-0.3,5.3-1,7.7-2.1C117.5,71.8,115.2,74.2,112.6,76.1z"
	/>
<circle class="circle" cx="84.9" cy="84.9" r="52.3"/>
</svg>
