<?xml version="1.0" encoding="utf-8"?>
<svg version="1.1" class="icon-svg icon-svg--website" xmlns="http://www.w3.org/2000/svg" xmlns:xlink="http://www.w3.org/1999/xlink" x="0px" y="0px" viewBox="0 0 18 18" style="enable-background:new 0 0 18 18;" xml:space="preserve">
    <path class="square" id="Fill-1" d="M11.6,12.7v2.2c0,0.7-0.5,1.2-1.2,1.2H3.1c-0.7,0-1.2-0.5-1.2-1.2V7.6c0-0.7,0.5-1.2,1.2-1.2h2.2l1.9-1.9H3.1
    	C1.4,4.5,0,5.9,0,7.6v7.2C0,16.6,1.4,18,3.1,18h7.2c1.7,0,3.1-1.4,3.1-3.1v-4.1L11.6,12.7z"/>
    <path class="arrow" id="Fill-3" d="M14,1.8H7.5c-1.2,0-1.1,0.3-0.5,0.9l2,2L5.6,8.2c-0.7,0.7-0.7,1.9,0,2.6l1.5,1.5C7.9,13,9,13,9.8,12.3l3.5-3.4
    	l2,2c0.7,0.7,1,0.7,1-0.5l0-6.4C16.2,1.8,16.2,1.8,14,1.8"/>
</svg>
